<?xml version="1.0" standalone="no"?>
<!DOCTYPE svg PUBLIC "-//W3C//DTD SVG 20010904//EN"
 "http://www.w3.org/TR/2001/REC-SVG-20010904/DTD/svg10.dtd">
<svg version="1.0" xmlns="http://www.w3.org/2000/svg"
 width="1080.000000pt" height="1080.000000pt" viewBox="0 0 1080.000000 1080.000000"
 preserveAspectRatio="xMidYMid meet">

<g transform="translate(0.000000,1080.000000) scale(0.100000,-0.100000)"
fill="#000000" stroke="none">
<path d="M2272 5398 l3 -813 943 0 c550 0 943 4 945 9 2 10 -428 212 -534 250
-108 40 -195 46 -630 46 l-409 0 2 508 3 507 480 5 c436 5 485 7 530 24 95 35
553 251 554 261 1 7 -321 11 -944 13 l-945 2 2 -812z"/>
<path d="M4412 6198 c6 -18 530 -246 617 -269 65 -17 110 -19 370 -19 358 0
342 -3 668 140 125 56 247 109 271 118 107 41 94 42 -944 42 -768 0 -985 -3
-982 -12z"/>
<path d="M6616 6099 c-8 -80 -8 -1412 0 -1473 l7 -46 991 2 991 3 3 158 3 157
-835 0 -834 0 -4 288 c-4 224 -8 299 -21 342 -13 47 -87 213 -244 553 -20 42
-39 77 -43 77 -4 0 -10 -28 -14 -61z"/>
<path d="M4412 5073 l3 -488 163 -3 162 -2 0 325 0 325 655 0 655 0 2 -322 3
-323 163 -3 162 -2 0 490 0 490 -985 0 -985 0 2 -487z"/>
<path d="M2366 4360 c-83 -26 -121 -137 -81 -238 28 -69 120 -101 198 -69 39
17 55 35 67 76 8 28 7 31 -14 31 -17 0 -27 -9 -36 -29 -15 -36 -58 -55 -105
-47 -51 10 -70 45 -69 124 0 55 4 67 27 90 48 48 140 29 149 -32 2 -15 11 -22
31 -24 32 -4 32 -4 11 48 -24 60 -107 93 -178 70z"/>
<path d="M2920 4205 c0 -158 1 -165 20 -165 19 0 20 7 20 165 0 158 -1 165
-20 165 -19 0 -20 -7 -20 -165z"/>
<path d="M3052 4208 c3 -155 4 -163 23 -163 19 0 20 8 23 163 l2 162 -25 0
-25 0 2 -162z"/>
<path d="M3510 4204 l0 -165 23 3 c22 3 22 6 25 166 l2 162 -25 0 -25 0 0
-166z"/>
<path d="M5190 4204 l0 -165 23 3 c20 3 22 9 27 91 5 97 18 117 71 117 40 0
48 -18 51 -116 3 -84 4 -89 26 -92 21 -3 22 -1 22 93 0 53 -5 105 -10 115 -6
11 -27 24 -48 31 -31 9 -45 8 -75 -5 l-37 -15 0 55 c0 51 -1 54 -25 54 l-25 0
0 -166z"/>
<path d="M5492 4353 c2 -10 13 -19 26 -21 17 -3 22 2 22 17 0 16 -6 21 -26 21
-19 0 -25 -5 -22 -17z"/>
<path d="M8380 4212 c0 -87 3 -162 7 -165 3 -4 11 1 18 9 10 15 14 15 43 0 58
-30 127 -12 150 39 15 33 15 106 1 139 -12 26 -63 56 -96 56 -11 0 -28 -7 -39
-15 -30 -23 -34 -19 -34 40 0 52 -1 55 -25 55 l-25 0 0 -158z m164 19 c20 -22
24 -98 6 -130 -17 -32 -84 -29 -106 4 -21 33 -14 113 12 132 26 19 68 16 88
-6z"/>
<path d="M4352 4214 c-35 -80 -66 -152 -69 -161 -4 -11 0 -14 18 -11 15 2 29
14 39 35 l15 33 86 0 85 0 17 -35 c13 -27 23 -35 43 -35 19 0 25 4 20 15 -3 9
-34 81 -68 160 -61 141 -64 145 -93 145 -29 0 -32 -5 -93 -146z m148 -46 c0
-15 -9 -18 -60 -18 -33 0 -60 4 -60 9 0 4 14 39 32 77 l31 69 28 -60 c15 -33
28 -68 29 -77z"/>
<path d="M7810 4200 l0 -160 103 0 c57 0 106 3 109 6 3 3 3 14 1 25 -5 19 -13
20 -84 17 l-79 -3 0 138 0 137 -25 0 -25 0 0 -160z"/>
<path d="M5644 4315 c-3 -20 -12 -35 -20 -35 -8 0 -14 -9 -14 -20 0 -11 6 -19
13 -17 9 1 13 -24 17 -91 4 -67 9 -95 20 -102 20 -13 80 -13 80 0 0 6 0 13 0
18 0 4 -9 8 -21 8 -12 1 -25 8 -30 15 -12 19 -11 149 1 150 6 1 20 2 33 3 36
2 27 31 -10 34 -30 3 -33 6 -33 38 0 47 -27 46 -36 -1z"/>
<path d="M6390 4331 c0 -30 -11 -51 -26 -51 -19 0 -18 -26 1 -34 12 -4 15 -24
15 -89 0 -98 14 -121 71 -115 47 4 54 38 9 38 l-31 0 3 83 c3 81 3 82 31 85
38 5 36 32 -3 32 -28 0 -30 3 -30 35 0 28 -4 35 -20 35 -13 0 -20 -7 -20 -19z"/>
<path d="M2674 4275 c-40 -21 -64 -64 -64 -117 0 -69 50 -118 120 -118 54 0
110 40 110 79 0 21 -45 11 -55 -11 -15 -34 -87 -38 -109 -6 -30 43 -23 48 74
48 l90 0 0 35 c0 76 -93 127 -166 90z m92 -33 c21 -14 35 -50 21 -54 -25 -9
-121 -1 -124 9 -11 33 70 68 103 45z"/>
<path d="M3690 4279 c-32 -13 -60 -39 -60 -56 0 -20 37 -16 60 7 22 22 79 27
98 8 7 -7 12 -21 12 -33 0 -18 -6 -21 -37 -19 -81 2 -143 -31 -143 -78 0 -10
11 -30 25 -43 29 -30 83 -33 126 -8 27 16 29 16 42 -1 17 -23 70 -19 75 7 2
12 -3 17 -17 17 -20 0 -21 6 -21 79 0 61 -4 84 -17 96 -33 34 -93 44 -143 24z
m110 -144 c0 -29 -38 -55 -80 -55 -22 0 -40 2 -40 4 0 2 -3 11 -6 19 -10 26
24 47 77 47 37 0 49 -4 49 -15z"/>
<path d="M4013 4271 c-27 -17 -33 -18 -33 -6 0 8 -9 15 -20 15 -20 0 -21 -5
-18 -117 3 -114 4 -118 26 -121 21 -3 22 -1 22 75 0 92 14 127 53 131 22 3 31
-3 45 -27 21 -38 52 -42 52 -7 0 60 -71 92 -127 57z"/>
<path d="M4728 4275 c-17 -10 -29 -11 -33 -5 -3 5 -13 10 -21 10 -11 0 -14
-22 -14 -120 0 -113 1 -120 20 -120 18 0 20 7 20 74 0 91 11 123 45 132 28 7
65 -18 65 -43 0 -7 9 -13 20 -13 31 0 27 53 -6 79 -31 24 -58 26 -96 6z"/>
<path d="M4960 4277 c-33 -17 -70 -74 -70 -109 0 -73 51 -128 120 -128 57 0
110 41 110 84 0 27 -34 18 -52 -14 -14 -25 -23 -30 -56 -30 -22 0 -45 6 -51
14 -19 23 -25 83 -11 116 21 51 96 54 118 5 11 -24 52 -36 52 -15 0 63 -96
110 -160 77z"/>
<path d="M5853 4276 c-67 -31 -85 -148 -31 -203 60 -59 198 -27 198 46 0 21
-45 11 -55 -11 -15 -34 -87 -38 -109 -6 -30 43 -23 48 74 48 l90 0 0 35 c0 76
-90 125 -167 91z m102 -46 c25 -27 13 -52 -22 -46 -16 2 -43 5 -60 5 -38 1
-41 13 -13 41 26 26 72 26 95 0z"/>
<path d="M6153 4283 c-23 -4 -72 -55 -74 -76 -6 -53 -4 -76 9 -105 30 -67 131
-85 183 -33 16 16 29 39 29 50 0 32 -32 26 -52 -9 -14 -25 -23 -30 -56 -30
-46 0 -61 14 -69 64 -7 47 13 95 43 102 37 10 74 -4 84 -31 11 -28 50 -35 50
-9 0 29 -21 56 -55 70 -34 14 -50 15 -92 7z"/>
<path d="M6935 4274 c-20 -12 -30 -13 -33 -5 -2 6 -12 11 -23 11 -19 0 -19 -7
-17 -117 3 -114 4 -118 26 -121 21 -3 22 0 22 72 0 113 19 146 74 132 14 -3
26 -16 30 -31 9 -34 46 -35 46 -1 0 57 -69 90 -125 60z"/>
<path d="M7183 4283 c-93 -18 -109 -184 -22 -228 63 -33 169 3 169 57 0 24
-38 24 -47 1 -9 -25 -23 -33 -59 -33 -36 0 -59 16 -69 48 -6 22 -5 22 84 22
l91 0 0 36 c0 48 -15 73 -55 90 -34 14 -50 15 -92 7z m78 -43 c10 -6 19 -21
19 -33 0 -20 -4 -22 -57 -21 -32 1 -62 2 -66 3 -9 1 12 43 27 53 16 11 54 10
77 -2z"/>
<path d="M7437 4274 c-66 -28 -56 -104 15 -119 89 -18 108 -26 108 -44 0 -23
-19 -31 -71 -31 -28 0 -42 6 -51 20 -14 21 -43 27 -53 10 -4 -6 7 -24 24 -40
25 -26 37 -30 81 -30 145 0 167 124 25 146 -24 3 -52 12 -62 19 -15 11 -15 15
-4 29 19 23 77 21 98 -4 23 -26 53 -26 53 0 0 46 -97 72 -163 44z"/>
<path d="M8120 4274 c-35 -15 -50 -30 -50 -51 0 -21 44 -15 58 7 24 40 118 16
110 -28 -2 -11 -18 -16 -57 -19 -69 -4 -103 -21 -115 -56 -15 -40 18 -81 69
-85 41 -4 95 14 95 31 0 6 7 1 16 -11 20 -30 74 -31 74 -2 0 11 -7 20 -15 20
-12 0 -15 14 -15 64 0 91 -14 123 -58 136 -49 13 -70 12 -112 -6z m115 -146
c-11 -35 -36 -49 -80 -46 -30 2 -41 8 -44 22 -5 29 26 46 82 46 45 0 48 -1 42
-22z"/>
<path d="M3190 4181 c0 -96 1 -100 26 -120 31 -25 74 -27 113 -6 26 13 30 13
41 0 7 -8 25 -15 41 -15 22 0 29 5 29 20 0 11 -7 20 -15 20 -12 0 -15 18 -15
100 l0 100 -25 0 c-24 0 -25 -2 -25 -72 0 -96 -14 -122 -65 -126 -55 -5 -65
13 -65 115 0 76 -2 83 -20 83 -19 0 -20 -7 -20 -99z"/>
<path d="M5494 4267 c-2 -7 -3 -60 -2 -118 3 -99 4 -104 26 -107 22 -3 22 -2
22 117 0 115 -1 121 -20 121 -11 0 -23 -6 -26 -13z"/>
<path d="M6550 4181 c0 -96 1 -100 26 -120 31 -25 74 -27 113 -6 26 13 30 13
41 0 7 -8 25 -15 41 -15 22 0 29 5 29 20 0 11 -7 20 -15 20 -12 0 -15 18 -15
100 l0 100 -25 0 c-25 0 -25 -1 -25 -78 0 -97 -14 -122 -70 -122 -51 0 -60 17
-60 119 0 74 -2 81 -20 81 -19 0 -20 -7 -20 -99z"/>
</g>
</svg>
